<svg width="128" height="128" viewBox="0 0 128 128" fill="none" xmlns="http://www.w3.org/2000/svg">
<path d="M47.3 42.7199L51.3 44.7199C52.0363 45.0415 52.8375 45.1864 53.6397 45.143C54.4419 45.0996 55.2228 44.8691 55.92 44.4699L59.7001 42.0099C60.3505 41.5378 60.8799 40.9183 61.2449 40.2022C61.6099 39.4861 61.8002 38.6937 61.8 37.8899L61.5601 33.3799C61.4725 32.5826 61.1989 31.8169 60.7612 31.1447C60.3234 30.4725 59.7339 29.9125 59.04 29.5099L55.04 27.4599C54.3052 27.1345 53.504 26.9867 52.7014 27.0284C51.8988 27.0701 51.1172 27.3001 50.42 27.6999L46.6401 30.1599C45.9908 30.6332 45.4622 31.2529 45.0974 31.9688C44.7325 32.6846 44.5415 33.4765 44.54 34.2799L44.78 38.7899C44.8577 39.5981 45.1268 40.3761 45.565 41.0595C46.0032 41.743 46.598 42.3122 47.3 42.7199Z" fill="white"/>
<path d="M71.4299 48.56L67.4299 46.51C66.6954 46.1885 65.8958 46.0437 65.0952 46.0871C64.2946 46.1305 63.5154 46.361 62.8199 46.76L58.9999 49.22C58.353 49.6955 57.8261 50.3157 57.4615 51.0311C57.0969 51.7464 56.9045 52.5371 56.8999 53.34L57.14 57.85C57.2275 58.6474 57.5011 59.4131 57.9388 60.0853C58.3766 60.7575 58.9661 61.3175 59.6599 61.72L63.6599 63.72C64.3931 64.0453 65.1926 64.1932 65.9937 64.1515C66.7947 64.1098 67.5745 63.8797 68.2699 63.48L72.0599 61.02C72.7071 60.5424 73.2339 59.9204 73.5984 59.2034C73.963 58.4865 74.1553 57.6943 74.1599 56.89L73.9199 52.39C73.8282 51.6029 73.5557 50.8476 73.1238 50.1832C72.6918 49.5188 72.1121 48.9633 71.4299 48.56Z" fill="white"/>
<path d="M83.77 67.5801L79.77 65.5801C79.0351 65.2546 78.234 65.1068 77.4314 65.1485C76.6288 65.1902 75.8472 65.4202 75.15 65.8201L71.3701 68.2801C70.7219 68.7544 70.1942 69.3744 69.8295 70.09C69.4647 70.8056 69.2731 71.5969 69.27 72.4001L69.5101 76.9101C69.6058 77.6946 69.8812 78.4465 70.3148 79.1072C70.7483 79.768 71.3285 80.3199 72.0101 80.7201L76.0101 82.7201C76.7463 83.0416 77.5475 83.1865 78.3497 83.1431C79.1519 83.0997 79.9328 82.8692 80.6301 82.4701L84.42 80.0101C85.0675 79.5357 85.5941 78.9155 85.9572 78.1997C86.3203 77.4839 86.5097 76.6927 86.5101 75.8901L86.3 71.4601C86.2137 70.6598 85.9396 69.8912 85.4999 69.2169C85.0603 68.5427 84.4675 67.9818 83.77 67.5801Z" fill="white"/>
<path d="M54.3 56.3799L54.11 52.8699C54.1146 52.067 54.3069 51.2763 54.6716 50.561C55.0362 49.8456 55.563 49.2254 56.21 48.7499L63.58 43.9599C64.2754 43.5609 65.0547 43.3304 65.8553 43.287C66.6559 43.2436 67.4555 43.3885 68.19 43.7099L71.33 45.3099C72.0649 45.6353 72.866 45.7832 73.6686 45.7415C74.4713 45.6998 75.2528 45.4697 75.95 45.0699L79.73 42.5999C80.3787 42.1261 80.9068 41.5063 81.2716 40.7905C81.6364 40.0748 81.8277 39.2833 81.83 38.4799L81.59 33.9799C81.504 33.1808 81.231 32.4131 80.7932 31.7391C80.3554 31.065 79.7651 30.5035 79.07 30.0999L75.07 28.0499C74.3338 27.7284 73.5326 27.5835 72.7303 27.6269C71.9281 27.6703 71.1472 27.9008 70.45 28.2999L66.59 30.7199C65.9425 31.1943 65.4159 31.8145 65.0528 32.5303C64.6897 33.2461 64.5003 34.0373 64.5 34.8399L64.68 38.3499C64.6797 39.1526 64.4902 39.9438 64.1271 40.6596C63.764 41.3754 63.2374 41.9956 62.59 42.4699L55.22 47.2599C54.5228 47.6597 53.7413 47.8898 52.9387 47.9315C52.136 47.9732 51.3349 47.8253 50.6 47.4999L47.47 45.9099C46.7351 45.5845 45.934 45.4367 45.1313 45.4784C44.3287 45.5201 43.5472 45.7501 42.85 46.1499L39.07 48.6099C38.4207 49.0832 37.8922 49.7029 37.5273 50.4188C37.1624 51.1347 36.9715 51.9265 36.97 52.7299L37.21 57.2399C37.2952 58.0393 37.5679 58.8073 38.0057 59.4815C38.4436 60.1557 39.0343 60.717 39.73 61.1199L43.73 63.1199C44.4662 63.4415 45.2674 63.5864 46.0696 63.543C46.8718 63.4996 47.6528 63.2691 48.35 62.8699L52.13 60.4099C52.7796 59.9526 53.3137 59.3504 53.6904 58.6509C54.067 57.9515 54.2757 57.174 54.3 56.3799Z" fill="white"/>
<path d="M93.8901 53.0001C93.801 52.2018 93.5268 51.4354 93.0893 50.7618C92.6518 50.0882 92.0631 49.526 91.3701 49.1201L87.3701 47.1201C86.6337 46.7993 85.8325 46.6548 85.0305 46.6982C84.2284 46.7416 83.4475 46.9717 82.7501 47.3701L78.97 49.8301C78.3219 50.3045 77.7943 50.9244 77.4295 51.64C77.0648 52.3556 76.8731 53.1469 76.8701 53.9501L77.0601 57.4701C77.057 58.2732 76.8654 59.0645 76.5006 59.7801C76.1359 60.4957 75.6082 61.1157 74.96 61.5901L67.6 66.3701C66.9028 66.7692 66.1219 66.9997 65.3197 67.0431C64.5175 67.0865 63.7163 66.9416 62.98 66.6201L59.84 65.0201C59.1055 64.6986 58.3059 64.5537 57.5053 64.5971C56.7047 64.6406 55.9255 64.871 55.23 65.2701L51.41 67.7201C50.7631 68.1956 50.2363 68.8157 49.8716 69.5311C49.507 70.2464 49.3147 71.0371 49.3101 71.8401L49.55 76.35C49.6376 77.1474 49.9112 77.9131 50.3489 78.5853C50.7867 79.2575 51.3762 79.8175 52.0701 80.2201L56.0701 82.2701C56.8032 82.5954 57.6027 82.7432 58.4037 82.7015C59.2048 82.6598 59.9846 82.4297 60.6801 82.03L64.47 79.57C65.1164 79.094 65.6429 78.4737 66.0074 77.7585C66.372 77.0432 66.5646 76.2528 66.5701 75.4501L66.3801 71.93C66.3823 71.1267 66.5736 70.3352 66.9384 69.6195C67.3032 68.9037 67.8313 68.2839 68.48 67.81L75.84 63.0201C76.5372 62.6203 77.3188 62.3902 78.1214 62.3485C78.924 62.3068 79.7251 62.4546 80.46 62.78L83.59 64.3701C84.3249 64.6955 85.1261 64.8433 85.9287 64.8016C86.7313 64.7599 87.5128 64.5299 88.21 64.1301L92.0001 61.6701C92.6469 61.1951 93.1731 60.5748 93.5361 59.8592C93.8992 59.1435 94.0889 58.3525 94.09 57.5501L93.8901 53.0001Z" fill="white"/>
</svg>
