<svg id="Layer_1" data-name="Layer 1" xmlns="http://www.w3.org/2000/svg" viewBox="0 0 305 305"><defs><style>.cls-1{fill:#fff;stroke:#000;stroke-miterlimit:10;stroke-width:5px;}</style></defs><circle class="cls-1" cx="152.5" cy="152.5" r="150"/><path d="M762.8,356.5c-.1,1.4-.2,2.7-.3,4.5l5.5-.4c1.7-8.6,3.3-16.7,5.1-25.6h-.2l-10,15.5A41.2,41.2,0,0,1,762.8,356.5Z" transform="translate(-548.9 -220.9)"/><path d="M714.7,392.9a63.6,63.6,0,0,1-2.3-28.1c3.1-25.4,18.7-37.5,40.2-31.7,7.2,1.9,10,4.4,10.5,10.6l10-15.5c-7.2-1.5-14-3.2-20.9-4.2-27.3-4-47.5,14-51.4,45.5-.4,3.4-2.4,27.3,10.9,40.8a37.6,37.6,0,0,0,6,4.9l5.4-8.5A33.9,33.9,0,0,1,714.7,392.9Z" transform="translate(-548.9 -220.9)"/><path d="M769.1,388.8a14.9,14.9,0,0,1,2.3-5.8,13.5,13.5,0,0,1,2.5-2.4,18.6,18.6,0,0,1-1-2.5c-4.5.1-9.3.1-14.3-.2s-8.4-.6-12.3-1a13.4,13.4,0,0,1-.3,3.8,14.8,14.8,0,0,1-1.3,3.9c4.1-.2,7.4.4,9.9.4,4.2,0,6.2,2.3,6.1,7.1s-.2,11-.7,16.4a6.4,6.4,0,0,1-2.7,4.2c-10.8,6.4-22.6,4.6-31-3.4l-5.3,8.5a35.8,35.8,0,0,0,11,4.7,38,38,0,0,0,7.2.8c8.6.6,14.4-.9,25.9-3.9a4.4,4.4,0,0,0,2.6-1.5,5.2,5.2,0,0,0,.8-2c-.4-3.6-.5-6.7-.6-9a79.1,79.1,0,0,1,.1-9.6A38.1,38.1,0,0,1,769.1,388.8Z" transform="translate(-548.9 -220.9)"/><path d="M678.2,345.4c1,3.4.2,7.3.2,11.4l6.3-.4c1.9-13.1,2.7-18.6,3-21,0-.3.6-5,.6-5l-1-.3L678,344.7A1.9,1.9,0,0,0,678.2,345.4Z" transform="translate(-548.9 -220.9)"/><path d="M639,399.9a42.9,42.9,0,0,1-1.4-12.9h-5.9a65.2,65.2,0,0,1,.2,15.2c-.3,3.6-1.2,10.5-1.2,10.5h.2l8.2-12.6A.8.8,0,0,1,639,399.9Z" transform="translate(-548.9 -220.9)"/><path d="M645.1,355.2c-7.3-6.2-6.1-15.8,2.2-20.6s15.9-4.5,23.7-1.2c2.5,1.1,4.5,4.8,5.5,7.9l9.4-14.6-4.1-1.1a65.3,65.3,0,0,0-19.3-2.1c-11.2,0-21.2,3.6-28.4,12.8s-6.9,22.1,2.8,30.3c4.7,3.9,10.4,6.8,15.8,10.1l.7.4,7.5-11.6C655.5,362.3,649.8,359.2,645.1,355.2Z" transform="translate(-548.9 -220.9)"/><path d="M682,378.5c-5.2-4-11.4-6.7-17.1-10.2l-.9-.5-7.5,11.6c5.5,3.3,11.1,6.2,16.4,9.8s7.3,8.5,6,14.8A13.9,13.9,0,0,1,668,415.1a59.1,59.1,0,0,1-15.7,1.2c-3.5-.2-6.2-1.1-8.2-2.9s-3.1-4.6-4.1-8.4l-8.1,12.6c1.9.8,14.8,6.3,29,5.8a40.7,40.7,0,0,0,7.9-.9,33.2,33.2,0,0,0,16.1-10C695,401.4,694.1,387.5,682,378.5Z" transform="translate(-548.9 -220.9)"/></svg>